<svg xmlns="http://www.w3.org/2000/svg" viewBox="0 0 448 448" width="448" height="448">
	<style>
		tspan { white-space:pre }
		.shp0 { fill: #ffffff }
	</style>
	<g id="Layer">
		<path id="Layer" class="shp0" d="M280 308L264 308C259.58 308 256 311.58 256 316C256 320.42 259.58 324 264 324L280 324C284.42 324 288 320.42 288 316C288 311.58 284.42 308 280 308Z" />
		<path id="Layer" fill-rule="evenodd" class="shp0" d="M448 216C448 233.94 438.92 250.3 424 259.81L424 365.33C424 365.69 423.97 366.04 423.92 366.39C422.68 387.33 405.25 404 384 404L384 412C384 425.23 373.23 436 360 436C346.77 436 336 425.23 336 412L336 404L112 404L112 412C112 425.23 101.23 436 88 436C74.77 436 64 425.23 64 412L64 404C42.75 404 25.32 387.33 24.08 366.39C24.03 366.04 24 365.69 24 365.33L24 259.81C9.08 250.3 0 233.94 0 216C0 187.33 23.33 164 52 164C53.35 164 54.68 164.07 56 164.17L56 68C56 37.12 81.12 12 112 12L336 12C366.88 12 392 37.12 392 68L392 164.17C393.32 164.07 394.65 164 396 164C424.67 164 448 187.33 448 216ZM72 168C90.77 175.86 104 194.41 104 216L104 252.02C110.69 246.99 119 244 128 244L320 244C329 244 337.31 246.99 344 252.02L344 216C344 194.41 357.23 175.86 376 168L376 68C376 45.94 358.06 28 336 28L112 28C89.94 28 72 45.94 72 68L72 168ZM96 404L80 404L80 412C80 416.41 83.59 420 88 420C92.41 420 96 416.41 96 412L96 404ZM368 404L352 404L352 412C352 416.41 355.59 420 360 420C364.41 420 368 416.41 368 412L368 404ZM432 216C432 196.15 415.85 180 396 180C376.15 180 360 196.15 360 216L360 284C360 306.06 342.06 324 320 324L312 324C307.58 324 304 320.42 304 316C304 311.58 307.58 308 312 308L320 308C333.23 308 344 297.23 344 284C344 270.77 333.23 260 320 260L128 260C114.77 260 104 270.77 104 284C104 297.23 114.77 308 128 308L232 308C236.42 308 240 311.58 240 316C240 320.42 236.42 324 232 324L128 324C105.94 324 88 306.06 88 284L88 216C88 196.15 71.85 180 52 180C32.15 180 16 196.15 16 216C16 229.58 23.53 241.87 35.64 248.06C38.32 249.43 40 252.18 40 255.19L40 364C40 377.23 50.77 388 64 388L384 388C397.23 388 408 377.23 408 364L408 255.19C408 252.18 409.68 249.43 412.36 248.06C424.47 241.87 432 229.58 432 216Z" />
	</g>
	<g id="Layer">
	</g>
	<g id="Layer">
	</g>
	<g id="Layer">
	</g>
	<g id="Layer">
	</g>
	<g id="Layer">
	</g>
	<g id="Layer">
	</g>
	<g id="Layer">
	</g>
	<g id="Layer">
	</g>
	<g id="Layer">
	</g>
	<g id="Layer">
	</g>
	<g id="Layer">
	</g>
	<g id="Layer">
	</g>
	<g id="Layer">
	</g>
	<g id="Layer">
	</g>
	<g id="Layer">
	</g>
</svg>