<?xml version="1.0" encoding="utf-8"?>
<!-- Generator: Adobe Illustrator 19.0.0, SVG Export Plug-In . SVG Version: 6.00 Build 0)  -->
<svg version="1.1" id="Layer_1" xmlns="http://www.w3.org/2000/svg" xmlns:xlink="http://www.w3.org/1999/xlink" x="0px" y="0px"
	 viewBox="-49 141 512 512" style="enable-background:new -49 141 512 512;" xml:space="preserve">
<style type="text/css">
	.st0{fill:#E2E5E7;}
	.st1{fill:#B0B7BD;}
	.st2{fill:#CAD1D8;}
	.st3{fill:#50BEE8;}
	.st4{fill:#FFFFFF;}
</style>
<path class="st0" d="M79,141c-17.6,0-32,14.4-32,32v448c0,17.6,14.4,32,32,32h320c17.6,0,32-14.4,32-32V269L303,141H79z"/>
<path class="st1" d="M335,269h96L303,141v96C303,254.6,317.4,269,335,269z"/>
<polygon class="st2" points="431,365 335,269 431,269 "/>
<path class="st3" d="M367,557c0,8.8-7.2,16-16,16H-1c-8.8,0-16-7.2-16-16V397c0-8.8,7.2-16,16-16h352c8.8,0,16,7.2,16,16V557z"/>
<g>
	<path class="st4" d="M83.6,525c-8.1,0-11.3-7.8-6.7-13.3l45.6-60.5H84.8c-11.1,0-10.2-15.7,0-15.7h51.6c9.7,0,12.5,9.2,5.6,16.6
		l-43.6,56.7h41.6c10.2,0,11.5,16.3-1,16.3L83.6,525L83.6,525z"/>
	<path class="st4" d="M163,444.2c0-10.5,16.9-10.9,16.9,0v73c0,10.6-16.9,10.9-16.9,0V444.2z"/>
	<path class="st4" d="M202.6,444.2c0-4.2,3.3-8.8,8.7-8.8h29.6c16.6,0,31.6,11.1,31.6,32.5c0,20.2-15,31.5-31.6,31.5h-21.4v16.9
		c0,5.6-3.6,8.8-8.2,8.8c-4.2,0-8.7-3.2-8.7-8.8L202.6,444.2L202.6,444.2z M219.5,451.4v31.9h21.4c8.6,0,15.4-7.6,15.4-15.5
		c0-8.9-6.8-16.4-15.4-16.4H219.5z"/>
</g>
<path class="st2" d="M351,573H47v16h304c8.8,0,16-7.2,16-16v-16C367,565.8,359.8,573,351,573z"/>
</svg>
