<?xml version="1.0"?>
<svg xmlns="http://www.w3.org/2000/svg" height="512px" viewBox="-112 0 480 480.00154" width="512px" class=""><g><path d="m248 472-120-160-120 160v-464h240zm0 0" fill="#ff5b42" data-original="#FF5B42"/><path d="m5.472656 479.59375c3.265625 1.085938 6.863282-.039062 8.929688-2.792969l113.597656-151.464843 113.601562 151.464843c1.511719 2.011719 3.882813 3.199219 6.398438 3.199219.859375-.003906 1.710938-.140625 2.527344-.40625 3.269531-1.089844 5.472656-4.148438 5.472656-7.59375v-464c0-4.417969-3.582031-8-8-8h-240c-4.417969 0-8 3.582031-8 8v464c0 3.445312 2.203125 6.503906 5.472656 7.59375zm10.527344-463.59375h224v432l-105.597656-140.800781c-1.511719-2.011719-3.882813-3.199219-6.402344-3.199219-2.515625 0-4.886719 1.1875-6.398438 3.199219l-105.601562 140.800781zm0 0" data-original="#000000" class="active-path" data-old_color="#000000" style="fill:#FFFFFF"/></g> </svg>
