<?xml version="1.0" encoding="iso-8859-1"?>
<!-- Generator: Adobe Illustrator 19.0.0, SVG Export Plug-In . SVG Version: 6.00 Build 0)  -->
<svg version="1.1" id="Capa_1" xmlns="http://www.w3.org/2000/svg" xmlns:xlink="http://www.w3.org/1999/xlink" x="0px" y="0px"
	 viewBox="0 0 448 448" style="enable-background:new 0 0 448 448;" xml:space="preserve">
<g>
	<path d="M280,307.999h-15.997c-4.418,0-8,3.582-8,8s3.582,8,8,8H280c4.418,0,8-3.582,8-8S284.418,307.999,280,307.999z"/>
	<path d="M396,164c-1.347,0-2.678,0.068-4,0.169V68c0-30.879-25.122-56-56-56H112c-30.878,0-56,25.121-56,56v96.169
		c-1.322-0.101-2.653-0.169-4-0.169c-28.673,0-52,23.327-52,52c0,17.936,9.079,34.304,24,43.815v105.518
		c0,0.358,0.032,0.709,0.078,1.055C25.318,387.335,42.746,404,64,404v8c0,13.233,10.766,24,24,24s24-10.767,24-24v-8h224v8
		c0,13.233,10.766,24,24,24s24-10.767,24-24v-8c21.254,0,38.682-16.665,39.922-37.612c0.046-0.346,0.078-0.697,0.078-1.055V259.815
		c14.921-9.512,24-25.88,24-43.815C448,187.327,424.673,164,396,164z M72,68c0-22.056,17.944-40,40-40h224c22.056,0,40,17.944,40,40
		v100.005c-18.773,7.853-32,26.406-32,47.995v36.022c-6.69-5.034-15.002-8.022-24-8.022H128c-8.998,0-17.31,2.988-24,8.022V216
		c0-21.589-13.227-40.142-32-47.995V68z M96,412c0,4.411-3.589,8-8,8s-8-3.589-8-8v-8h16V412z M368,412c0,4.411-3.589,8-8,8
		s-8-3.589-8-8v-8h16V412z M412.358,248.064c-2.675,1.368-4.358,4.119-4.358,7.123V364c0,13.233-10.766,24-24,24H64
		c-13.234,0-24-10.767-24-24V255.188c0-3.004-1.683-5.755-4.358-7.123C23.526,241.869,16,229.583,16,216c0-19.851,16.149-36,36-36
		s36,16.149,36,36v68.001l0,0.001c0.001,22.055,17.944,39.997,40,39.997h103.998c4.418,0,8-3.582,8-8s-3.582-8-8-8H128
		c-13.233,0-24-10.766-24-23.999s10.767-24,24-24h192c13.233,0,24,10.767,24,24s-10.767,23.999-24,23.999h-8c-4.418,0-8,3.582-8,8
		s3.582,8,8,8h8c22.055,0,39.999-17.942,40-39.997l0-0.001V216c0-19.851,16.149-36,36-36s36,16.149,36,36
		C432,229.583,424.474,241.869,412.358,248.064z"/>
</g>
<g>
</g>
<g>
</g>
<g>
</g>
<g>
</g>
<g>
</g>
<g>
</g>
<g>
</g>
<g>
</g>
<g>
</g>
<g>
</g>
<g>
</g>
<g>
</g>
<g>
</g>
<g>
</g>
<g>
</g>
</svg>
